<svg width="32" height="32" viewBox="0 0 32 32" fill="none" xmlns="http://www.w3.org/2000/svg">
<circle cx="16" cy="16" r="16" fill="url(#gradient0_linear_1_1)"/>
<path d="M16 8C19.3137 8 22 10.6863 22 14C22 17.3137 19.3137 20 16 20C12.6863 20 10 17.3137 10 14C10 10.6863 12.6863 8 16 8Z" fill="white"/>
<path d="M16 12C17.6569 12 19 13.3431 19 15C19 16.6569 17.6569 18 16 18C14.3431 18 13 16.6569 13 15C13 13.3431 14.3431 12 16 12Z" fill="#000000"/>
<defs>
<linearGradient id="gradient0_linear_1_1" x1="0" y1="0" x2="32" y2="32" gradientUnits="userSpaceOnUse">
<stop stop-color="#667EEA"/>
<stop offset="0.5" stop-color="#764BA2"/>
<stop offset="1" stop-color="#F093FB"/>
</linearGradient>
</defs>
</svg>
