<svg xmlns="http://www.w3.org/2000/svg" viewBox="0 0 64 64">
  <defs>
    <linearGradient id="g1" x1="0%" y1="0%" x2="100%" y2="100%">
      <stop offset="0%" stop-color="#667eea"/>
      <stop offset="50%" stop-color="#764ba2"/>
      <stop offset="100%" stop-color="#38f9d7"/>
    </linearGradient>
    <radialGradient id="glow" cx="30%" cy="30%" r="70%">
      <stop offset="0%" stop-color="rgba(255,255,255,0.6)"/>
      <stop offset="60%" stop-color="rgba(255,255,255,0)"/>
    </radialGradient>
  </defs>
  <g fill="none">
    <rect width="64" height="64" rx="18" ry="18" fill="url(#g1)"/>
    <circle cx="20" cy="20" r="14" fill="url(#glow)"/>
    <path d="M42 33h-9.5a1.5 1.5 0 0 0 0 3H44c.55 0 1-.45 1-1V24c0-6.63-5.37-12-12-12h-2c-9.39 0-17 7.61-17 17s7.61 17 17 17c6.24 0 11.68-3.42 14.59-8.49a1.5 1.5 0 1 0-2.62-1.47C42.58 39.28 38.07 42 33 42c-7.73 0-14-6.27-14-14s6.27-14 14-14h2c5.07 0 9 3.93 9 9v10z" fill="#ffffff" opacity="0.95"/>
  </g>
</svg>
